<svg width="546" height="213" viewBox="0 0 546 213" fill="none" xmlns="http://www.w3.org/2000/svg">
<g opacity="0.06">
<path d="M86.0907 54.3477C86.0907 57.2608 85.7084 59.7915 84.9437 61.94C84.179 64.0884 83.1048 65.9455 81.7211 67.5113C80.3737 69.0406 78.7351 70.2969 76.8052 71.2801C74.9117 72.2269 72.7997 72.9916 70.4692 73.5742C68.1751 74.1204 65.7172 74.5027 63.0954 74.7212C60.4736 74.9397 57.7608 75.0489 54.9569 75.0489H0.5V0H53.9737C56.1221 0 58.2706 0.0910346 60.419 0.273104C62.6038 0.455173 64.6794 0.801105 66.6457 1.3109C68.6121 1.78428 70.4328 2.45793 72.1078 3.33187C73.8193 4.2058 75.294 5.35284 76.5321 6.77298C77.8066 8.19312 78.7897 9.90457 79.4816 11.9073C80.2099 13.9101 80.574 16.277 80.574 19.008C80.574 23.8875 79.3724 27.7656 76.9691 30.6423C74.5657 33.4825 70.7787 35.3761 65.6079 36.3228C69.2493 36.5777 72.3627 37.1421 74.9481 38.0161C77.5699 38.8536 79.7001 40.0188 81.3387 41.5118C82.9773 42.9683 84.179 44.7708 84.9437 46.9192C85.7084 49.0312 86.0907 51.5074 86.0907 54.3477ZM60.8013 22.2307C60.8013 21.2839 60.6557 20.3918 60.3643 19.5542C60.073 18.6803 59.545 17.9156 58.7803 17.2602C58.0157 16.6047 56.9779 16.0767 55.667 15.6762C54.3561 15.2756 52.681 15.0753 50.6419 15.0753H20.7643V29.1675H50.6419C52.681 29.1675 54.3561 28.9854 55.667 28.6213C56.9779 28.2571 58.0157 27.7656 58.7803 27.1465C59.545 26.5275 60.073 25.7992 60.3643 24.9617C60.6557 24.0878 60.8013 23.1774 60.8013 22.2307ZM65.4987 51.999C65.4987 50.2875 65.2074 48.922 64.6248 47.9024C64.0421 46.8464 63.1318 46.0453 61.8937 45.4991C60.6557 44.9165 59.0535 44.5341 57.0871 44.3521C55.1208 44.17 52.7721 44.079 50.041 44.079H20.7643V59.9736H50.041C52.7721 59.9736 55.1208 59.8826 57.0871 59.7005C59.0535 59.5184 60.6557 59.1361 61.8937 58.5535C63.1318 57.9708 64.0421 57.1697 64.6248 56.1502C65.2074 55.0942 65.4987 53.7104 65.4987 51.999Z" fill="white"/>
<path d="M164.908 60.8475H123.069L116.023 75.0489H93.4099L132.682 0H155.295L194.568 75.0489H171.955L164.908 60.8475ZM130.334 46.2092H157.753L144.098 18.5711L130.334 46.2092Z" fill="white"/>
<path d="M244.546 16.3316V75.0489H224.281V16.3316H192.437V0H276.444V16.3316H244.546Z" fill="white"/>
<path d="M331.939 16.3316V75.0489H311.674V16.3316H279.831V0H363.837V16.3316H331.939Z" fill="white"/>
<path d="M377.274 75.0489V0H397.538V58.6081H452.323V75.0489H377.274Z" fill="white"/>
<path d="M468.6 75.0489V0H544.577V16.0039H489.41V28.4028H541.737V44.4067H489.41V59.0451H545.342V75.0489H468.6Z" fill="white"/>
<path d="M86.0907 189.903C86.0907 192.816 85.7084 195.347 84.9437 197.495C84.179 199.644 83.1048 201.501 81.7211 203.066C80.3737 204.596 78.7351 205.852 76.8052 206.835C74.9117 207.782 72.7997 208.547 70.4692 209.129C68.1751 209.676 65.7172 210.058 63.0954 210.276C60.4736 210.495 57.7608 210.604 54.9569 210.604H0.5V135.555H53.9737C56.1221 135.555 58.2705 135.646 60.419 135.828C62.6038 136.01 64.6794 136.356 66.6457 136.866C68.6121 137.339 70.4328 138.013 72.1078 138.887C73.8193 139.761 75.294 140.908 76.5321 142.328C77.8066 143.748 78.7897 145.46 79.4816 147.462C80.2099 149.465 80.574 151.832 80.574 154.563C80.574 159.443 79.3724 163.321 76.9691 166.197C74.5657 169.038 70.7787 170.931 65.6079 171.878C69.2493 172.133 72.3627 172.697 74.9481 173.571C77.5699 174.409 79.7001 175.574 81.3387 177.067C82.9773 178.523 84.179 180.326 84.9437 182.474C85.7084 184.586 86.0907 187.063 86.0907 189.903ZM60.8013 157.786C60.8013 156.839 60.6557 155.947 60.3643 155.109C60.073 154.235 59.545 153.471 58.7803 152.815C58.0157 152.16 56.9779 151.632 55.667 151.231C54.3561 150.831 52.681 150.63 50.6418 150.63H20.7643V164.723H50.6418C52.681 164.723 54.3561 164.541 55.667 164.176C56.9779 163.812 58.0157 163.321 58.7803 162.702C59.545 162.083 60.073 161.354 60.3643 160.517C60.6557 159.643 60.8013 158.733 60.8013 157.786ZM65.4987 187.554C65.4987 185.843 65.2074 184.477 64.6248 183.458C64.0421 182.402 63.1318 181.6 61.8937 181.054C60.6557 180.472 59.0534 180.089 57.0871 179.907C55.1208 179.725 52.7721 179.634 50.041 179.634H20.7643V195.529H50.041C52.7721 195.529 55.1208 195.438 57.0871 195.256C59.0534 195.074 60.6557 194.691 61.8937 194.109C63.1318 193.526 64.0421 192.725 64.6248 191.705C65.2074 190.649 65.4987 189.266 65.4987 187.554Z" fill="white"/>
<path d="M104.607 210.604V135.555H124.871V210.604H104.607Z" fill="white"/>
<path d="M240.34 173.025C240.34 177.832 239.812 182.11 238.756 185.861C237.7 189.575 236.207 192.816 234.277 195.583C232.383 198.351 230.089 200.7 227.395 202.629C224.736 204.559 221.769 206.107 218.491 207.272C215.214 208.437 211.682 209.293 207.895 209.839C204.108 210.349 200.157 210.604 196.042 210.604H148.413V135.555H195.933C200.048 135.555 203.999 135.828 207.786 136.374C211.573 136.884 215.105 137.722 218.382 138.887C221.696 140.052 224.7 141.6 227.395 143.53C230.089 145.423 232.383 147.772 234.277 150.576C236.207 153.343 237.7 156.584 238.756 160.298C239.812 164.013 240.34 168.255 240.34 173.025ZM219.912 173.025C219.912 169.42 219.438 166.288 218.491 163.63C217.581 160.972 216.088 158.787 214.013 157.076C211.973 155.328 209.297 154.035 205.983 153.198C202.67 152.324 198.628 151.887 193.857 151.887H168.677V194.272H193.857C198.628 194.272 202.67 193.854 205.983 193.016C209.297 192.142 211.973 190.831 214.013 189.083C216.088 187.299 217.581 185.078 218.491 182.42C219.438 179.762 219.912 176.63 219.912 173.025Z" fill="white"/>
<path d="M328.006 156.693C326.586 156.002 324.711 155.219 322.38 154.345C320.05 153.471 317.41 152.651 314.46 151.887C311.511 151.086 308.306 150.43 304.847 149.92C301.388 149.374 297.837 149.101 294.196 149.101C291.283 149.101 288.788 149.192 286.713 149.374C284.674 149.556 282.944 149.793 281.524 150.084C280.14 150.376 279.029 150.722 278.192 151.122C277.391 151.486 276.772 151.869 276.335 152.269C275.898 152.67 275.607 153.07 275.461 153.471C275.352 153.871 275.297 154.235 275.297 154.563C275.297 155.656 275.843 156.621 276.936 157.458C278.028 158.259 279.521 158.987 281.415 159.643C283.308 160.262 285.511 160.863 288.024 161.445C290.536 161.992 293.194 162.574 295.998 163.193C298.839 163.776 301.752 164.431 304.738 165.16C307.76 165.851 310.673 166.671 313.477 167.618C316.317 168.564 318.994 169.675 321.506 170.949C324.019 172.187 326.222 173.644 328.115 175.319C330.009 176.994 331.502 178.924 332.594 181.109C333.687 183.294 334.233 185.788 334.233 188.592C334.233 192.197 333.596 195.292 332.321 197.877C331.047 200.463 329.335 202.648 327.187 204.432C325.075 206.216 322.617 207.655 319.813 208.747C317.009 209.803 314.06 210.622 310.964 211.205C307.906 211.788 304.792 212.17 301.624 212.352C298.493 212.534 295.507 212.625 292.666 212.625C285.238 212.625 278.356 212.006 272.02 210.768C265.72 209.566 260.149 208.055 255.306 206.234V188.319C260.294 191.086 265.975 193.253 272.347 194.819C278.756 196.384 285.602 197.167 292.885 197.167C297.182 197.167 300.677 196.949 303.372 196.512C306.103 196.039 308.233 195.456 309.763 194.764C311.292 194.036 312.33 193.253 312.876 192.415C313.422 191.578 313.695 190.777 313.695 190.012C313.695 188.81 313.149 187.773 312.057 186.899C310.964 185.988 309.471 185.205 307.578 184.55C305.684 183.858 303.481 183.239 300.969 182.693C298.456 182.11 295.78 181.546 292.94 181C290.136 180.417 287.241 179.798 284.255 179.143C281.269 178.487 278.356 177.722 275.515 176.848C272.712 175.938 270.053 174.9 267.541 173.735C265.028 172.533 262.825 171.131 260.932 169.529C259.038 167.891 257.545 166.015 256.453 163.903C255.36 161.755 254.814 159.279 254.814 156.475C254.814 153.161 255.397 150.303 256.562 147.899C257.727 145.496 259.293 143.457 261.259 141.782C263.262 140.07 265.556 138.687 268.142 137.631C270.763 136.575 273.513 135.755 276.389 135.173C279.266 134.59 282.179 134.19 285.129 133.971C288.078 133.753 290.882 133.643 293.54 133.643C296.453 133.643 299.439 133.789 302.498 134.08C305.593 134.372 308.634 134.79 311.62 135.337C314.606 135.846 317.482 136.447 320.25 137.139C323.054 137.831 325.639 138.559 328.006 139.324V156.693Z" fill="white"/>
<path d="M51.5704 104.346C51.5704 107.568 50.9787 110.418 49.7952 112.894C48.6118 115.352 46.9185 117.409 44.7155 119.066C42.5125 120.723 39.836 121.979 36.6863 122.835C33.5547 123.673 30.0316 124.091 26.1171 124.091C22.2026 124.091 18.6614 123.673 15.4934 122.835C12.3436 121.979 9.65808 120.723 7.43684 119.066C5.21559 117.409 3.50414 115.352 2.30248 112.894C1.10083 110.418 0.5 107.568 0.5 104.346C0.5 101.123 1.10083 98.283 2.30248 95.825C3.50414 93.3489 5.21559 91.2824 7.43684 89.6256C9.65808 87.9687 12.3436 86.7216 15.4934 85.8841C18.6614 85.0283 22.2026 84.6005 26.1171 84.6005C30.0316 84.6005 33.5547 85.0283 36.6863 85.8841C39.836 86.7216 42.5125 87.9687 44.7155 89.6256C46.9185 91.2824 48.6118 93.3489 49.7952 95.825C50.9787 98.283 51.5704 101.123 51.5704 104.346ZM41.329 104.346C41.329 102.944 41.1014 101.551 40.6463 100.167C40.2093 98.7654 39.4173 97.5092 38.2703 96.3985C37.1414 95.2879 35.5938 94.3867 33.6275 93.6948C31.6611 93.003 29.1577 92.657 26.1171 92.657C24.078 92.657 22.2846 92.8209 20.737 93.1486C19.1894 93.4581 17.8512 93.8951 16.7224 94.4595C15.5935 95.0239 14.6468 95.6885 13.8821 96.4532C13.1174 97.1997 12.5075 98.0099 12.0523 98.8838C11.5971 99.7395 11.2694 100.641 11.0691 101.588C10.887 102.516 10.796 103.436 10.796 104.346C10.796 105.274 10.887 106.212 11.0691 107.159C11.2694 108.106 11.5971 109.016 12.0523 109.89C12.5075 110.746 13.1174 111.547 13.8821 112.293C14.6468 113.04 15.5935 113.695 16.7224 114.26C17.8512 114.806 19.1894 115.243 20.737 115.57C22.2846 115.88 24.078 116.035 26.1171 116.035C29.1577 116.035 31.6611 115.689 33.6275 114.997C35.5938 114.305 37.1414 113.404 38.2703 112.293C39.4173 111.183 40.2093 109.935 40.6463 108.552C41.1014 107.15 41.329 105.748 41.329 104.346Z" fill="white"/>
<path d="M70.9335 93.5583V100.085H95.3216V108.087H70.9335V123.081H60.8013V85.5563H96.6598V93.5583H70.9335Z" fill="white"/>
<path d="M147.375 93.7221V123.081H137.243V93.7221H121.321V85.5563H163.324V93.7221H147.375Z" fill="white"/>
<path d="M205.956 123.081V107.432H180.175V123.081H170.043V85.5563H180.175V99.2115H205.956V85.5563H216.088V123.081H205.956Z" fill="white"/>
<path d="M227.832 123.081V85.5563H265.82V93.5583H238.237V99.7577H264.4V107.76H238.237V115.079H266.203V123.081H227.832Z" fill="white"/>
</g>
</svg>
