<svg width="633" height="196" viewBox="0 0 633 196" fill="none" xmlns="http://www.w3.org/2000/svg">
<g filter="url(#filter0_d)">
<rect width="403.919" height="0.730415" transform="matrix(1 0 0 -1 -58 54.4454)" fill="#CE2028"/>
</g>
<g filter="url(#filter1_d)">
<rect width="307.505" height="0.730415" transform="matrix(1 0 0 -1 7.00684 136.252)" fill="#CE2028"/>
</g>
<g filter="url(#filter2_d)">
<rect width="340.373" height="0.730415" transform="matrix(1 0 0 -1 235.627 86.5836)" fill="#CE2028"/>
</g>
<path d="M151.628 45.1845C151.628 47.5461 151.318 49.5978 150.698 51.3395C150.078 53.0812 149.207 54.5867 148.085 55.8561C146.993 57.096 145.665 58.1144 144.1 58.9115C142.565 59.679 140.853 60.2989 138.963 60.7713C137.104 61.2141 135.111 61.524 132.985 61.7012C130.86 61.8783 128.661 61.9669 126.388 61.9669H82.2397V1.12512H125.591C127.332 1.12512 129.074 1.19892 130.816 1.34653C132.587 1.49413 134.27 1.77457 135.864 2.18786C137.458 2.57163 138.934 3.11776 140.292 3.82625C141.679 4.53474 142.875 5.46463 143.879 6.61593C144.912 7.76723 145.709 9.15469 146.27 10.7783C146.86 12.4019 147.155 14.3208 147.155 16.5348C147.155 20.4906 146.181 23.6345 144.233 25.9666C142.284 28.2692 139.214 29.8043 135.022 30.5718C137.974 30.7785 140.498 31.236 142.594 31.9445C144.72 32.6235 146.447 33.5681 147.775 34.7785C149.104 35.9593 150.078 37.4206 150.698 39.1623C151.318 40.8745 151.628 42.8819 151.628 45.1845ZM131.126 19.1474C131.126 18.3798 131.008 17.6566 130.771 16.9776C130.535 16.2691 130.107 15.6492 129.487 15.1178C128.867 14.5865 128.026 14.1584 126.963 13.8337C125.901 13.509 124.543 13.3466 122.889 13.3466H98.6679V24.771H122.889C124.543 24.771 125.901 24.6234 126.963 24.3282C128.026 24.033 128.867 23.6345 129.487 23.1326C130.107 22.6308 130.535 22.0404 130.771 21.3614C131.008 20.6529 131.126 19.9149 131.126 19.1474ZM134.934 43.2804C134.934 41.8929 134.698 40.7859 134.225 39.9593C133.753 39.1032 133.015 38.4538 132.011 38.011C131.008 37.5386 129.709 37.2287 128.115 37.0811C126.52 36.9335 124.616 36.8597 122.402 36.8597H98.6679V49.7454H122.402C124.616 49.7454 126.52 49.6716 128.115 49.524C129.709 49.3764 131.008 49.0664 132.011 48.5941C133.015 48.1217 133.753 47.4723 134.225 46.6457C134.698 45.7896 134.934 44.6678 134.934 43.2804Z" fill="white"/>
<path d="M215.525 50.4539H181.606L175.893 61.9669H157.561L189.399 1.12512H207.731L239.569 61.9669H221.237L215.525 50.4539ZM187.495 38.5866H209.724L198.654 16.1806L187.495 38.5866Z" fill="white"/>
<path d="M280.086 14.3651V61.9669H263.658V14.3651H237.842V1.12512H305.946V14.3651H280.086Z" fill="white"/>
<path d="M350.935 14.3651V61.9669H334.507V14.3651H308.691V1.12512H376.795V14.3651H350.935Z" fill="white"/>
<path d="M387.688 61.9669V1.12512H404.116V48.6383H448.53V61.9669H387.688Z" fill="white"/>
<path d="M461.726 61.9669V1.12512H523.32V14.0994H478.597V24.1511H521.017V37.1254H478.597V48.9926H523.94V61.9669H461.726Z" fill="white"/>
<path d="M151.627 155.078C151.627 157.44 151.317 159.491 150.697 161.233C150.078 162.975 149.207 164.48 148.085 165.75C146.993 166.99 145.664 168.008 144.1 168.805C142.565 169.573 140.852 170.193 138.963 170.665C137.103 171.108 135.111 171.418 132.985 171.595C130.86 171.772 128.66 171.861 126.387 171.861H82.2395V111.019H125.59C127.332 111.019 129.074 111.093 130.815 111.24C132.587 111.388 134.269 111.668 135.863 112.082C137.458 112.465 138.934 113.011 140.292 113.72C141.679 114.428 142.875 115.358 143.878 116.51C144.911 117.661 145.709 119.048 146.269 120.672C146.86 122.296 147.155 124.214 147.155 126.429C147.155 130.384 146.181 133.528 144.233 135.86C142.284 138.163 139.214 139.698 135.022 140.465C137.974 140.672 140.498 141.13 142.594 141.838C144.72 142.517 146.447 143.462 147.775 144.672C149.103 145.853 150.078 147.314 150.697 149.056C151.317 150.768 151.627 152.776 151.627 155.078ZM131.125 129.041C131.125 128.274 131.007 127.55 130.771 126.871C130.535 126.163 130.107 125.543 129.487 125.012C128.867 124.48 128.026 124.052 126.963 123.727C125.9 123.403 124.542 123.24 122.889 123.24H98.6676V134.665H122.889C124.542 134.665 125.9 134.517 126.963 134.222C128.026 133.927 128.867 133.528 129.487 133.026C130.107 132.524 130.535 131.934 130.771 131.255C131.007 130.547 131.125 129.809 131.125 129.041ZM134.934 153.174C134.934 151.787 134.697 150.68 134.225 149.853C133.753 148.997 133.015 148.347 132.011 147.905C131.007 147.432 129.708 147.122 128.114 146.975C126.52 146.827 124.616 146.753 122.402 146.753H98.6676V159.639H122.402C124.616 159.639 126.52 159.565 128.114 159.418C129.708 159.27 131.007 158.96 132.011 158.488C133.015 158.015 133.753 157.366 134.225 156.539C134.697 155.683 134.934 154.562 134.934 153.174Z" fill="white"/>
<path d="M166.639 171.861V111.019H183.067V171.861H166.639Z" fill="white"/>
<path d="M276.676 141.395C276.676 145.292 276.248 148.761 275.392 151.801C274.536 154.812 273.326 157.44 271.761 159.683C270.226 161.927 268.366 163.831 266.182 165.396C264.027 166.96 261.621 168.215 258.964 169.159C256.307 170.104 253.444 170.798 250.373 171.241C247.303 171.654 244.1 171.861 240.764 171.861H202.152V111.019H240.676C244.012 111.019 247.215 111.24 250.285 111.683C253.355 112.096 256.218 112.775 258.875 113.72C261.562 114.665 263.997 115.919 266.182 117.484C268.366 119.019 270.226 120.923 271.761 123.196C273.326 125.44 274.536 128.067 275.392 131.078C276.248 134.089 276.676 137.528 276.676 141.395ZM260.115 141.395C260.115 138.473 259.731 135.934 258.964 133.779C258.226 131.624 257.016 129.853 255.333 128.465C253.68 127.048 251.51 126 248.824 125.321C246.137 124.613 242.86 124.259 238.993 124.259H218.58V158.621H238.993C242.86 158.621 246.137 158.281 248.824 157.602C251.51 156.894 253.68 155.831 255.333 154.414C257.016 152.967 258.226 151.167 258.964 149.012C259.731 146.857 260.115 144.318 260.115 141.395Z" fill="white"/>
<path d="M347.747 128.155C346.595 127.595 345.075 126.96 343.186 126.251C341.296 125.543 339.156 124.879 336.765 124.259C334.374 123.609 331.776 123.078 328.972 122.665C326.167 122.222 323.289 122 320.337 122C317.975 122 315.953 122.074 314.27 122.222C312.617 122.369 311.215 122.561 310.064 122.797C308.942 123.034 308.042 123.314 307.363 123.639C306.713 123.934 306.211 124.244 305.857 124.569C305.503 124.893 305.267 125.218 305.149 125.543C305.06 125.868 305.016 126.163 305.016 126.429C305.016 127.314 305.459 128.096 306.344 128.775C307.23 129.425 308.44 130.015 309.975 130.547C311.51 131.048 313.296 131.536 315.333 132.008C317.37 132.451 319.525 132.923 321.798 133.425C324.101 133.897 326.462 134.429 328.883 135.019C331.333 135.58 333.695 136.244 335.968 137.012C338.271 137.779 340.44 138.68 342.477 139.713C344.514 140.716 346.3 141.897 347.835 143.255C349.37 144.613 350.581 146.178 351.466 147.949C352.352 149.72 352.795 151.742 352.795 154.015C352.795 156.938 352.278 159.447 351.245 161.543C350.212 163.639 348.824 165.41 347.082 166.857C345.37 168.303 343.378 169.469 341.105 170.355C338.832 171.211 336.44 171.875 333.931 172.348C331.451 172.82 328.927 173.13 326.359 173.278C323.82 173.425 321.4 173.499 319.097 173.499C313.075 173.499 307.496 172.997 302.359 171.993C297.252 171.019 292.735 169.794 288.809 168.318V153.794C292.853 156.038 297.459 157.794 302.625 159.063C307.82 160.333 313.37 160.967 319.274 160.967C322.758 160.967 325.592 160.79 327.776 160.436C329.99 160.052 331.717 159.58 332.957 159.019C334.197 158.429 335.038 157.794 335.481 157.115C335.924 156.436 336.145 155.787 336.145 155.167C336.145 154.193 335.702 153.351 334.817 152.643C333.931 151.905 332.721 151.27 331.186 150.739C329.651 150.178 327.865 149.676 325.828 149.233C323.791 148.761 321.621 148.303 319.318 147.86C317.045 147.388 314.699 146.886 312.278 146.355C309.857 145.823 307.496 145.204 305.193 144.495C302.92 143.757 300.765 142.916 298.728 141.971C296.691 140.997 294.905 139.86 293.37 138.561C291.835 137.233 290.625 135.713 289.739 134.001C288.853 132.259 288.411 130.251 288.411 127.978C288.411 125.292 288.883 122.975 289.828 121.026C290.772 119.078 292.042 117.425 293.636 116.067C295.259 114.679 297.119 113.558 299.215 112.701C301.34 111.845 303.569 111.181 305.901 110.709C308.234 110.237 310.595 109.912 312.986 109.735C315.377 109.558 317.651 109.469 319.806 109.469C322.167 109.469 324.588 109.587 327.068 109.823C329.577 110.059 332.042 110.399 334.462 110.842C336.883 111.255 339.215 111.742 341.459 112.303C343.732 112.864 345.828 113.454 347.747 114.074V128.155Z" fill="white"/>
<path d="M123.642 85.7177C123.642 88.3302 123.162 90.6402 122.203 92.6476C121.243 94.6402 119.871 96.3082 118.085 97.6513C116.299 98.9945 114.129 100.013 111.575 100.707C109.037 101.386 106.181 101.725 103.007 101.725C99.8337 101.725 96.9628 101.386 94.3946 100.707C91.841 100.013 89.6639 98.9945 87.8632 97.6513C86.0624 96.3082 84.6749 94.6402 83.7008 92.6476C82.7266 90.6402 82.2395 88.3302 82.2395 85.7177C82.2395 83.1051 82.7266 80.8025 83.7008 78.8099C84.6749 76.8025 86.0624 75.1272 87.8632 73.784C89.6639 72.4408 91.841 71.4298 94.3946 70.7508C96.9628 70.0571 99.8337 69.7102 103.007 69.7102C106.181 69.7102 109.037 70.0571 111.575 70.7508C114.129 71.4298 116.299 72.4408 118.085 73.784C119.871 75.1272 121.243 76.8025 122.203 78.8099C123.162 80.8025 123.642 83.1051 123.642 85.7177ZM115.339 85.7177C115.339 84.5811 115.155 83.452 114.786 82.3302C114.432 81.1937 113.79 80.1752 112.86 79.2748C111.944 78.3745 110.69 77.6438 109.096 77.0829C107.502 76.5221 105.472 76.2416 103.007 76.2416C101.354 76.2416 99.9001 76.3745 98.6455 76.6401C97.3909 76.8911 96.306 77.2453 95.3909 77.7029C94.4757 78.1604 93.7082 78.6992 93.0883 79.3191C92.4683 79.9243 91.9739 80.5811 91.6049 81.2896C91.2359 81.9833 90.9702 82.714 90.8078 83.4815C90.6602 84.2343 90.5864 84.9797 90.5864 85.7177C90.5864 86.4705 90.6602 87.2306 90.8078 87.9981C90.9702 88.7657 91.2359 89.5037 91.6049 90.2122C91.9739 90.9059 92.4683 91.5554 93.0883 92.1605C93.7082 92.7657 94.4757 93.2971 95.3909 93.7546C96.306 94.1974 97.3909 94.5517 98.6455 94.8174C99.9001 95.0683 101.354 95.1938 103.007 95.1938C105.472 95.1938 107.502 94.9133 109.096 94.3524C110.69 93.7915 111.944 93.0609 112.86 92.1605C113.79 91.2602 114.432 90.2491 114.786 89.1273C115.155 87.9908 115.339 86.8542 115.339 85.7177Z" fill="white"/>
<path d="M139.339 76.9722V82.2638H159.111V88.7509H139.339V100.906H131.125V70.4851H160.196V76.9722H139.339Z" fill="white"/>
<path d="M201.31 77.1051V100.906H193.096V77.1051H180.188V70.4851H214.24V77.1051H201.31Z" fill="white"/>
<path d="M248.801 100.906V88.2195H227.901V100.906H219.687V70.4851H227.901V81.5553H248.801V70.4851H257.016V100.906H248.801Z" fill="white"/>
<path d="M266.536 100.906V70.4851H297.333V76.9722H274.971V81.9981H296.182V88.4852H274.971V94.4188H297.643V100.906H266.536Z" fill="white"/>
<defs>
<filter id="filter0_d" x="-114.242" y="0.394691" width="516.403" height="113.214" filterUnits="userSpaceOnUse" color-interpolation-filters="sRGB">
<feFlood flood-opacity="0" result="BackgroundImageFix"/>
<feColorMatrix in="SourceAlpha" type="matrix" values="0 0 0 0 0 0 0 0 0 0 0 0 0 0 0 0 0 0 127 0"/>
<feMorphology radius="16.0691" operator="dilate" in="SourceAlpha" result="effect1_dropShadow"/>
<feOffset dy="2.92166"/>
<feGaussianBlur stdDeviation="20.0864"/>
<feColorMatrix type="matrix" values="0 0 0 0 1 0 0 0 0 0 0 0 0 0 0 0 0 0 0.45 0"/>
<feBlend mode="normal" in2="BackgroundImageFix" result="effect1_dropShadow"/>
<feBlend mode="normal" in="SourceGraphic" in2="effect1_dropShadow" result="shape"/>
</filter>
<filter id="filter1_d" x="-49.2351" y="82.2011" width="419.988" height="113.214" filterUnits="userSpaceOnUse" color-interpolation-filters="sRGB">
<feFlood flood-opacity="0" result="BackgroundImageFix"/>
<feColorMatrix in="SourceAlpha" type="matrix" values="0 0 0 0 0 0 0 0 0 0 0 0 0 0 0 0 0 0 127 0"/>
<feMorphology radius="16.0691" operator="dilate" in="SourceAlpha" result="effect1_dropShadow"/>
<feOffset dy="2.92166"/>
<feGaussianBlur stdDeviation="20.0864"/>
<feColorMatrix type="matrix" values="0 0 0 0 1 0 0 0 0 0 0 0 0 0 0 0 0 0 0.45 0"/>
<feBlend mode="normal" in2="BackgroundImageFix" result="effect1_dropShadow"/>
<feBlend mode="normal" in="SourceGraphic" in2="effect1_dropShadow" result="shape"/>
</filter>
<filter id="filter2_d" x="179.385" y="32.5329" width="452.857" height="113.214" filterUnits="userSpaceOnUse" color-interpolation-filters="sRGB">
<feFlood flood-opacity="0" result="BackgroundImageFix"/>
<feColorMatrix in="SourceAlpha" type="matrix" values="0 0 0 0 0 0 0 0 0 0 0 0 0 0 0 0 0 0 127 0"/>
<feMorphology radius="16.0691" operator="dilate" in="SourceAlpha" result="effect1_dropShadow"/>
<feOffset dy="2.92166"/>
<feGaussianBlur stdDeviation="20.0864"/>
<feColorMatrix type="matrix" values="0 0 0 0 1 0 0 0 0 0 0 0 0 0 0 0 0 0 0.45 0"/>
<feBlend mode="normal" in2="BackgroundImageFix" result="effect1_dropShadow"/>
<feBlend mode="normal" in="SourceGraphic" in2="effect1_dropShadow" result="shape"/>
</filter>
</defs>
</svg>
